<svg width="204" height="200" viewBox="0 0 204 200" fill="none" xmlns="http://www.w3.org/2000/svg">
<path d="M128.802 0C143.498 0 155.703 1.88395 165.377 5.6543C175.051 9.22422 182.312 14.5809 187.14 21.7227C191.986 28.8644 194.4 37.692 194.4 48.2051C194.4 60.9023 190.566 71.4159 182.916 79.7471C175.441 88.0802 162.458 92.6423 143.907 93.4346V96.4111C164.268 97.2053 179.276 101.868 188.95 110.397C198.838 118.927 203.764 130.135 203.764 144.021C203.764 155.13 201.447 164.851 196.814 173.183C192.182 181.516 184.823 187.963 174.74 192.525C164.871 197.088 151.868 199.369 135.751 199.369H0V0H128.802ZM56.5469 121.407V149.081H128.49C135.342 149.081 139.975 148.187 142.408 146.402C145.017 144.419 146.321 140.65 146.321 135.095C146.321 129.541 145.114 125.87 142.7 124.085C140.286 122.3 135.536 121.407 128.49 121.407H56.5469ZM56.5469 50.2881V75.5811H122.748C128.587 75.5811 132.519 74.69 134.544 72.9033C136.549 70.9198 137.561 67.6475 137.562 63.085C137.562 58.5224 136.258 55.2482 133.63 53.2646C131.216 51.2812 127.07 50.2881 121.23 50.2881H56.5469Z" fill="#272727"/>
</svg>
